<svg xmlns="http://www.w3.org/2000/svg" viewBox="0 0 48 48">
  <path d="M19.91 10.61 L19.95 4.93 A19.5 19.5 0 0 1 28.05 4.93 L28.09 10.61 A14 14 0 0 1 33.55 13.76 L38.49 10.95 A19.5 19.5 0 0 1 42.55 17.97 L37.64 20.85 A14 14 0 0 1 37.64 27.15 L42.55 30.03 A19.5 19.5 0 0 1 38.49 37.05 L33.55 34.24 A14 14 0 0 1 28.09 37.39 L28.05 43.07 A19.5 19.5 0 0 1 19.95 43.07 L19.91 37.39 A14 14 0 0 1 14.45 34.24 L9.51 37.05 A19.5 19.5 0 0 1 5.45 30.03 L10.36 27.15 A14 14 0 0 1 10.36 20.85 L5.45 17.97 A19.5 19.5 0 0 1 9.51 10.95 L14.45 13.76 A14 14 0 0 1 19.91 10.61 Z" fill="#eaf6fb" stroke="#6fa8c0" stroke-width="2.3" stroke-linejoin="round"/>
  <circle cx="24" cy="24" r="6.5" fill="#eaf6fb" stroke="#6fa8c0" stroke-width="2.3"/>
</svg>