<svg xmlns="http://www.w3.org/2000/svg" width="204" height="87" fill="none" viewBox="0 0 204 87" xmlns:c2pa="http://c2pa.org/manifest"><metadata><c2pa:manifest>AAAWgmp1bWIAAAAeanVtZGMycGEAEQAQgAAAqgA4m3EDYzJwYQAAABZcanVtYgAAAEdqdW1kYzJtYQARABCAAACqADibcQN1cm46YzJwYTo5YWQ1ZjM3My1mYzVhLTQwM2EtYjllOC05MWM1ODE0MzZmMGMAAAADl2p1bWIAAAApanVtZGMyYXMAEQAQgAAAqgA4m3EDYzJwYS5hc3NlcnRpb25zAAAAALxqdW1iAAAARGp1bWRjYm9yABEAEIAAAKoAOJtxE2MycGEuaW5ncmVkaWVudC52MwAAAAAYYzJzaDLX+qSu8DtfYNUYjiAPNcsAAABwY2JvcqNpZGM6Zm9ybWF0bWltYWdlL3N2Zyt4bWxqaW5zdGFuY2VJRHgseG1wOmlpZDowNzk0YjRlNS03NjgyLTRlYjUtYmZkYi0xNGFjODYxNjY0NmRscmVsYXRpb25zaGlwaHBhcmVudE9mAAAB4mp1bWIAAABBanVtZGNib3IAEQAQgAAAqgA4m3ETYzJwYS5hY3Rpb25zLnYyAAAAABhjMnNo2b2VY6rSccN7Ib55wU1xfgAAAZljYm9yomdhY3Rpb25zgqJmYWN0aW9ua2MycGEub3BlbmVkanBhcmFtZXRlcnOha2luZ3JlZGllbnRzgaJjdXJseC1zZWxmI2p1bWJmPWMycGEuYXNzZXJ0aW9ucy9jMnBhLmluZ3JlZGllbnQudjNkaGFzaFggNb8Mdt+GHe57WUuk4SxXE0yu8dnd+5wTjmE2FUXu60OkZmFjdGlvbngdY29tLmFudGhyb3BpYy5jbGF1ZGUucHJvdmlkZWRqcGFyYW1ldGVyc6F4H2NvbS5hbnRocm9waWMub3JpZ2luLWNvbmZpZGVuY2VndW5rbm93bmtkZXNjcmlwdGlvbnhmQ2xhdWRlIHByb3ZpZGVkIHRoaXMgZmlsZSBhdCB0aGUgcmVxdWVzdCBvZiBhIHVzZXIgYW5kIG1heSBoYXZlIGNyZWF0ZWQgb3IgbW9kaWZpZWQgdGhlIGZpbGUgY29udGVudHMubXNvZnR3YXJlQWdlbnShZG5hbWVmQ2xhdWRlcmFsbEFjdGlvbnNJbmNsdWRlZPUAAADIanVtYgAAAEBqdW1kY2JvcgARABCAAACqADibcRNjMnBhLmhhc2guZGF0YQAAAAAYYzJzaBOlM41z3hjubLiDT86CQgIAAACAY2JvcqVjYWxnZnNoYTI1NmNwYWRNAAAAAAAAAAAAAAAAAGRoYXNoWCBFOFUx6BV/j57h7bvkVjKqTRxwZHvTOIdP//Y9Zlxu3WRuYW1lbmp1bWJmIG1hbmlmZXN0amV4Y2x1c2lvbnOBomVzdGFydBigZmxlbmd0aBkeBAAAAj5qdW1iAAAAJ2p1bWRjMmNsABEAEIAAAKoAOJtxA2MycGEuY2xhaW0udjIAAAACD2Nib3KlY2FsZ2ZzaGEyNTZpc2lnbmF0dXJleE1zZWxmI2p1bWJmPS9jMnBhL3VybjpjMnBhOjlhZDVmMzczLWZjNWEtNDAzYS1iOWU4LTkxYzU4MTQzNmYwYy9jMnBhLnNpZ25hdHVyZWppbnN0YW5jZUlEeCx4bXA6aWlkOjhiMTEyNjExLWYwMjAtNDBmZi1hNDMwLTk1OTg2ZWZkMTZiMnJjcmVhdGVkX2Fzc2VydGlvbnODomN1cmx4LXNlbGYjanVtYmY9YzJwYS5hc3NlcnRpb25zL2MycGEuaW5ncmVkaWVudC52M2RoYXNoWCA1vwx234Yd7ntZS6ThLFcTTK7x2d37nBOOYTYVRe7rQ6JjdXJseCpzZWxmI2p1bWJmPWMycGEuYXNzZXJ0aW9ucy9jMnBhLmFjdGlvbnMudjJkaGFzaFggKGDwRMN6VamMlcCZLQecPvqurlNYucKssFoPpcgDFVeiY3VybHgpc2VsZiNqdW1iZj1jMnBhLmFzc2VydGlvbnMvYzJwYS5oYXNoLmRhdGFkaGFzaFgg5cDbQ4b/veGJvYZ6ncBZwayk38hupLlffgXVRkMgM810Y2xhaW1fZ2VuZXJhdG9yX2luZm+jZG5hbWVvQW50aHJvcGljIEZpbGVzZ3ZlcnNpb25lMS4wLjBrc3BlY1ZlcnNpb25lMi40LjAAABA4anVtYgAAAChqdW1kYzJjcwARABCAAACqADibcQNjMnBhLnNpZ25hdHVyZQAAABAIY2JvctKEWQISogEmGCFZAgowggIGMIIBjaADAgECAhRA5aAK7sI50L64g/oGQgU9Z1UTADAKBggqhkjOPQQDAzBJMRcwFQYDVQQKEw5BbnRocm9waWMsIFBCQzEuMCwGA1UEAxMlQW50aHJvcGljIENvbnRlbnQgQ3JlZGVudGlhbHMgUm9vdCBDQTAeFw0yNjA4MDcxODQzNTZaFw0yODA4MDYxOTQzNTZaMEQxFzAVBgNVBAoTDkFudGhyb3BpYywgUEJDMSkwJwYDVQQDEyBBbnRocm9waWMgQ2xhdWRlIENvbnRlbnQgU2lnbmluZzBZMBMGByqGSM49AgEGCCqGSM49AwEHA0IABJh6CmvLUBgFFNU0vUKlOVtE6djd17L5SuwX0LemFisBM3dkd/3cyjxFA3Qo5S46fX0/ihY0VZ7mfb9KF703t5OjWDBWMA4GA1UdDwEB/wQEAwIHgDAVBgNVHSUEDjAMBgorBgEEAYPoXgIBMAwGA1UdEwEB/wQCMAAwHwYDVR0jBBgwFoAUzlHiBIFOZFsj+OPEz5o+nMHXXMIwCgYIKoZIzj0EAwMDZwAwZAIwMXMdFJ4BetLLVY7ORuE9noqbbAZOZn/aArXyTwFAZfKrPzxF2vPoJNf1+UCdg1XGAjBwX1zd9WGqYkqmL5SFqw1QySjr1zJfpJM9+1rdDwSPLMOPOjKuiXjoU/pUUeG9RwmhY3BhZFkNngAAAAAAAAAAAAAAAAAAAAAAAAAAAAAAAAAAAAAAAAAAAAAAAAAAAAAAAAAAAAAAAAAAAAAAAAAAAAAAAAAAAAAAAAAAAAAAAAAAAAAAAAAAAAAAAAAAAAAAAAAAAAAAAAAAAAAAAAAAAAAAAAAAAAAAAAAAAAAAAAAAAAAAAAAAAAAAAAAAAAAAAAAAAAAAAAAAAAAAAAAAAAAAAAAAAAAAAAAAAAAAAAAAAAAAAAAAAAAAAAAAAAAAAAAAAAAAAAAAAAAAAAAAAAAAAAAAAAAAAAAAAAAAAAAAAAAAAAAAAAAAAAAAAAAAAAAAAAAAAAAAAAAAAAAAAAAAAAAAAAAAAAAAAAAAAAAAAAAAAAAAAAAAAAAAAAAAAAAAAAAAAAAAAAAAAAAAAAAAAAAAAAAAAAAAAAAAAAAAAAAAAAAAAAAAAAAAAAAAAAAAAAAAAAAAAAAAAAAAAAAAAAAAAAAAAAAAAAAAAAAAAAAAAAAAAAAAAAAAAAAAAAAAAAAAAAAAAAAAAAAAAAAAAAAAAAAAAAAAAAAAAAAAAAAAAAAAAAAAAAAAAAAAAAAAAAAAAAAAAAAAAAAAAAAAAAAAAAAAAAAAAAAAAAAAAAAAAAAAAAAAAAAAAAAAAAAAAAAAAAAAAAAAAAAAAAAAAAAAAAAAAAAAAAAAAAAAAAAAAAAAAAAAAAAAAAAAAAAAAAAAAAAAAAAAAAAAAAAAAAAAAAAAAAAAAAAAAAAAAAAAAAAAAAAAAAAAAAAAAAAAAAAAAAAAAAAAAAAAAAAAAAAAAAAAAAAAAAAAAAAAAAAAAAAAAAAAAAAAAAAAAAAAAAAAAAAAAAAAAAAAAAAAAAAAAAAAAAAAAAAAAAAAAAAAAAAAAAAAAAAAAAAAAAAAAAAAAAAAAAAAAAAAAAAAAAAAAAAAAAAAAAAAAAAAAAAAAAAAAAAAAAAAAAAAAAAAAAAAAAAAAAAAAAAAAAAAAAAAAAAAAAAAAAAAAAAAAAAAAAAAAAAAAAAAAAAAAAAAAAAAAAAAAAAAAAAAAAAAAAAAAAAAAAAAAAAAAAAAAAAAAAAAAAAAAAAAAAAAAAAAAAAAAAAAAAAAAAAAAAAAAAAAAAAAAAAAAAAAAAAAAAAAAAAAAAAAAAAAAAAAAAAAAAAAAAAAAAAAAAAAAAAAAAAAAAAAAAAAAAAAAAAAAAAAAAAAAAAAAAAAAAAAAAAAAAAAAAAAAAAAAAAAAAAAAAAAAAAAAAAAAAAAAAAAAAAAAAAAAAAAAAAAAAAAAAAAAAAAAAAAAAAAAAAAAAAAAAAAAAAAAAAAAAAAAAAAAAAAAAAAAAAAAAAAAAAAAAAAAAAAAAAAAAAAAAAAAAAAAAAAAAAAAAAAAAAAAAAAAAAAAAAAAAAAAAAAAAAAAAAAAAAAAAAAAAAAAAAAAAAAAAAAAAAAAAAAAAAAAAAAAAAAAAAAAAAAAAAAAAAAAAAAAAAAAAAAAAAAAAAAAAAAAAAAAAAAAAAAAAAAAAAAAAAAAAAAAAAAAAAAAAAAAAAAAAAAAAAAAAAAAAAAAAAAAAAAAAAAAAAAAAAAAAAAAAAAAAAAAAAAAAAAAAAAAAAAAAAAAAAAAAAAAAAAAAAAAAAAAAAAAAAAAAAAAAAAAAAAAAAAAAAAAAAAAAAAAAAAAAAAAAAAAAAAAAAAAAAAAAAAAAAAAAAAAAAAAAAAAAAAAAAAAAAAAAAAAAAAAAAAAAAAAAAAAAAAAAAAAAAAAAAAAAAAAAAAAAAAAAAAAAAAAAAAAAAAAAAAAAAAAAAAAAAAAAAAAAAAAAAAAAAAAAAAAAAAAAAAAAAAAAAAAAAAAAAAAAAAAAAAAAAAAAAAAAAAAAAAAAAAAAAAAAAAAAAAAAAAAAAAAAAAAAAAAAAAAAAAAAAAAAAAAAAAAAAAAAAAAAAAAAAAAAAAAAAAAAAAAAAAAAAAAAAAAAAAAAAAAAAAAAAAAAAAAAAAAAAAAAAAAAAAAAAAAAAAAAAAAAAAAAAAAAAAAAAAAAAAAAAAAAAAAAAAAAAAAAAAAAAAAAAAAAAAAAAAAAAAAAAAAAAAAAAAAAAAAAAAAAAAAAAAAAAAAAAAAAAAAAAAAAAAAAAAAAAAAAAAAAAAAAAAAAAAAAAAAAAAAAAAAAAAAAAAAAAAAAAAAAAAAAAAAAAAAAAAAAAAAAAAAAAAAAAAAAAAAAAAAAAAAAAAAAAAAAAAAAAAAAAAAAAAAAAAAAAAAAAAAAAAAAAAAAAAAAAAAAAAAAAAAAAAAAAAAAAAAAAAAAAAAAAAAAAAAAAAAAAAAAAAAAAAAAAAAAAAAAAAAAAAAAAAAAAAAAAAAAAAAAAAAAAAAAAAAAAAAAAAAAAAAAAAAAAAAAAAAAAAAAAAAAAAAAAAAAAAAAAAAAAAAAAAAAAAAAAAAAAAAAAAAAAAAAAAAAAAAAAAAAAAAAAAAAAAAAAAAAAAAAAAAAAAAAAAAAAAAAAAAAAAAAAAAAAAAAAAAAAAAAAAAAAAAAAAAAAAAAAAAAAAAAAAAAAAAAAAAAAAAAAAAAAAAAAAAAAAAAAAAAAAAAAAAAAAAAAAAAAAAAAAAAAAAAAAAAAAAAAAAAAAAAAAAAAAAAAAAAAAAAAAAAAAAAAAAAAAAAAAAAAAAAAAAAAAAAAAAAAAAAAAAAAAAAAAAAAAAAAAAAAAAAAAAAAAAAAAAAAAAAAAAAAAAAAAAAAAAAAAAAAAAAAAAAAAAAAAAAAAAAAAAAAAAAAAAAAAAAAAAAAAAAAAAAAAAAAAAAAAAAAAAAAAAAAAAAAAAAAAAAAAAAAAAAAAAAAAAAAAAAAAAAAAAAAAAAAAAAAAAAAAAAAAAAAAAAAAAAAAAAAAAAAAAAAAAAAAAAAAAAAAAAAAAAAAAAAAAAAAAAAAAAAAAAAAAAAAAAAAAAAAAAAAAAAAAAAAAAAAAAAAAAAAAAAAAAAAAAAAAAAAAAAAAAAAAAAAAAAAAAAAAAAAAAAAAAAAAAAAAAAAAAAAAAAAAAAAAAAAAAAAAAAAAAAAAAAAAAAAAAAAAAAAAAAAAAAAAAAAAAAAAAAAAAAAAAAAAAAAAAAAAAAAAAAAAAAAAAAAAAAAAAAAAAAAAAAAAAAAAAAAAAAAAAAAAAAAAAAAAAAAAAAAAAAAAAAAAAAAAAAAAAAAAAAAAAAAAAAAAAAAAAAAAAAAAAAAAAAAAAAAAAAAAAAAAAAAAAAAAAAAAAAAAAAAAAAAAAAAAAAAAAAAAAAAAAAAAAAAAAAAAAAAAAAAAAAAAAAAAAAAAAAAAAAAAAAAAAAAAAAAAAAAAAAAAAAAAAAAAAAAAAAAAAAAAAAAAAAAAAAAAAAAAAAAAAAAAAAAAAAAAAAAAAAAAAAAAAAAAAAAAAAAAAAAAAAAAAAAAAAAAAAAAAAAAAAAAAAAAAAAAAAAAAAAAAAAAAAAAAAAAAAAAAAAAAAAAAAAAAAAAAAAAAAAAAAAAAAAAAAAAAAAAAAAAAAAAAAAAAAAAAAAAAAAAAAAAAAAAAAAAAAAAAAAAAAAAAAAAAAAAAAAAAAAAAAAAAAAAAAAAAAAAAAAAAAAAAAAAAAAAAAAAAAAAAAAAAAAAAAAAAAAAAAAAAAAAAAAAAAAAAAAAAAAAAAAAAAAAAAAAAAAAAAAAAAAAAAAAAAAAAAAAAAAAAAAAAAAAAAAAAAAAAAAAAAAAAAAAAAAAAAAAAAAAAAAAAAAAAAAAAAAAAAAAAAAAAAAAAAAAAAAAAAAAAAAAAAAAAAAAAAAAAAAAAAAAAAAAAAAAAAAAAAAAAAAAAAAAAAAAAAAAAAAAAAAAAAAAAAAAAAAAAAAAAAAAAAAAAAAAAAAAAAAAAAAAAAAAAAAAAAAAAAAAAAAAAAAAAAAAAAAAAAAAAAAAAAAAAAAAAAAAAAAAAAAAAAAAAAAAAAAAAAAAAAAAAAAAAAAAAAAAAAAAAAAAAAAAAAAAAAAAAAAAAAAAAAAAAAAAAAAAAAAAAAAAAAAAAAAAAAAAAAAAAAAAAAAAAAAAAAAAAAAAAAAAAAAAAAAAAAAAAAAAAAAAAAAAAAAAAAAAAAAAAAAAAAAAAAAAAAAAAAAAAAAAAAAAAAAAAAAAAAAAAAAAAAAAAAAAAAAAAAAAAAAAAAAAAAAAAAAAAAAAAAAAAAAAAAAAAAAAAAAAAAAAAAAAAAAAAAAAAAAAAAAAAAAAAAAAAAAAAAAAAAAAAAAAAAAAAAAAAAAAAAAAAAAAAAAAAAAAAAAAAAAAAAAAAAAAAAAAAAAAAAAAAAAAAAAAAAAAAAAAAAAAAAAAAAAAAAAAAAAAAAAAAAAAAAAAAAAAAAAAAAAAAAAAAAAAAAAAAAAAAAAAAAAAAAAAAAAAAAAAAAAAAAAAAAAAAAAAAAAAAAAAAAAAAAAAAAAAAAAAAAAAAAAAAAAAAAAAAAAAAAAAAAAAAAAAAAAAAAAAAAAAAAAAAAAAAAAAAAAAAAAAAAAAAAAAAAAAAAAAAAAAAAAAAAAAAAAAAAAAAAAAAAAAAAAAAAAAAAAAAAAAAAAAAAAAAAAAAAAAAAAAAAAAAAAAAAAAAAAAAAAAAAAAAAAAAAAAAAAAAAAAAAAAAAAAAAAAAAAAAAAAAAAAAAAAAAAAAAAAAAAAAAAAAAAAAAAAPZYQAmLuKRmhWWJmLPY81G2j6+tCVtKaXOCgcNvkTv4HLKimviGwl/iQO0LPExIIrilI+D7cqaOrEc/kq38ZYgQqiE=</c2pa:manifest></metadata><mask id="a" width="61.22" height="60.41" x="-2.78" y="8.14" fill="#000" maskUnits="userSpaceOnUse"><path fill="#fff" d="M-2.78 8.14h61.22v60.41H-2.78z"/><path d="M26.75 17.3q4.1.19 9.92 9.16.57-.13 1.1-.22 9.97-1.76 10.76 2.72.14.8-.02 1.79.56 3.14-4.42 7.99l-.15.6q4.58 8.7 4.9 10.5l.33 1.9q-.12 5.02-4 5.7l-1.08.2q-2.95.52-13.98-5.32l-9.59 8.64a2 2 0 0 1-1.02.44l-2.14.38q-3.51-.07-4.75-3.33l-.38-2.15.92-10.44q-.17-.83-7.1-5.67l-.88-1.8-.29-1.61q-.67-3.8 3.95-5.96 7.25-1.02 8.93-1.31 1.39-2.65 3.03-8.03 1.5-3.53 4.52-4.06a8 8 0 0 1 1.44-.11"/></mask><path fill="#fdf9f3" d="M26.75 17.3q4.1.19 9.92 9.16.57-.13 1.1-.22 9.97-1.76 10.76 2.72.14.8-.02 1.79.56 3.14-4.42 7.99l-.15.6q4.58 8.7 4.9 10.5l.33 1.9q-.12 5.02-4 5.7l-1.08.2q-2.95.52-13.98-5.32l-9.59 8.64a2 2 0 0 1-1.02.44l-2.14.38q-3.51-.07-4.75-3.33l-.38-2.15.92-10.44q-.17-.83-7.1-5.67l-.88-1.8-.29-1.61q-.67-3.8 3.95-5.96 7.25-1.02 8.93-1.31 1.39-2.65 3.03-8.03 1.5-3.53 4.52-4.06a8 8 0 0 1 1.44-.11"/><path fill="#cfe8f3" d="m26.75 17.3.17-3.99h-.13zm9.92 9.16-3.36 2.17 1.5 2.32 2.7-.58zm11.84 4.29-3.94-.65-.11.67.11.67zm-4.42 7.99-2.79-2.87-.8.78-.28 1.08zm-.15.6-3.87-1.01-.4 1.5.73 1.37zm5.23 12.4 4 .1v-.4l-.06-.4zm-19.06.58 1.87-3.54-2.47-1.3-2.08 1.87zm-9.59 8.64 2.5 3.12.1-.07.08-.08zm-3.16.82-.08 4h.39l.38-.06zm-4.75-3.33-3.94.7.06.37.14.35zm-.38-2.15-3.99-.35-.04.53.09.52zm.92-10.44 3.98.35.05-.58-.11-.57zm-7.1-5.67-3.58 1.77.45.92.84.58zm-.88-1.8-3.94.7.1.56.25.51zm3.66-7.57-.56-3.96-.6.08-.54.26zm8.93-1.31.7 3.94 1.93-.35.91-1.74zm3.03-8.03-3.68-1.57-.08.2-.06.2zm5.96-4.17-.18 4c-.02 0 .62.05 2 1.32 1.3 1.2 2.9 3.15 4.74 6l3.36-2.17 3.35-2.18A40 40 0 0 0 34 16.75c-1.93-1.79-4.31-3.32-7.07-3.44zm9.92 9.15.85 3.9.95-.18-.7-3.94-.7-3.94-1.25.25zm1.1-.22.7 3.94c3.15-.56 5.03-.5 6-.26.43.1.46.2.34.1l-.16-.23q-.07-.13-.06-.14l3.94-.7 3.94-.68a7.3 7.3 0 0 0-2.16-4.06 8.6 8.6 0 0 0-3.88-2.05c-2.63-.66-5.86-.48-9.35.14zm10.76 2.72-3.94.7q.02 0-.02.44l3.94.65 3.95.64q.28-1.52.01-3.12zm-.02 1.79-3.94.7c-.03-.18.1.06-.39.93-.47.86-1.37 2.02-2.88 3.5l2.8 2.86 2.78 2.86c1.81-1.76 3.3-3.55 4.3-5.35s1.67-3.93 1.27-6.2zm-4.42 7.99-3.87-1.01-.15.6 3.87 1 3.87 1.02.15-.6zm-.15.6L40.4 41.2a167 167 0 0 1 3.43 6.8c.86 1.86 1.07 2.55 1.07 2.53l3.94-.7 3.93-.69a21 21 0 0 0-1.7-4.52 175 175 0 0 0-3.6-7.16zm4.9 10.5-3.94.7.33 1.9 3.94-.7 3.94-.7-.33-1.89zm.33 1.9-4-.09c-.03 1.22-.28 1.66-.33 1.73l-.02.02a1 1 0 0 1-.34.1l.7 3.94.7 3.94a8.3 8.3 0 0 0 5.51-3.41c1.28-1.82 1.73-4 1.78-6.14zm-4 5.7-.69-3.94-1.08.2.7 3.94.69 3.93 1.08-.19zm-1.08.2-.7-3.94c.26-.05.19.02-.44-.11q-.83-.17-2.4-.76a81 81 0 0 1-8.57-4.05l-1.87 3.54-1.87 3.53a89 89 0 0 0 9.46 4.46q1.91.73 3.57 1.1c1.03.22 2.28.38 3.52.16zm-13.98-5.32-2.68-2.97-9.59 8.64 2.68 2.97 2.68 2.97 9.59-8.64zm-9.59 8.64-2.5-3.12a2 2 0 0 1 .8-.38l.68 3.94.7 3.94a6 6 0 0 0 2.83-1.26zm-1.02.44-.69-3.94-2.15.38.7 3.94.7 3.94 2.14-.38zm-2.14.38.08-4c-.55-.01-.71-.13-.73-.15-.01 0-.18-.11-.37-.6l-3.73 1.42-3.74 1.42a9 9 0 0 0 3.25 4.32 9 9 0 0 0 5.16 1.59zm-4.75-3.33 3.94-.7-.38-2.14-3.94.7-3.94.69.38 2.15zm-.38-2.15 3.98.35.92-10.44-3.98-.35-3.99-.35-.92 10.44zm.92-10.44 3.92-.8a5 5 0 0 0-.89-1.9 8 8 0 0 0-.73-.81 22 22 0 0 0-1.66-1.44 113 113 0 0 0-5.44-4l-2.3 3.28-2.29 3.27a104 104 0 0 1 5.03 3.7q.81.64 1.04.88.12.13-.01-.02l-.23-.35a4 4 0 0 1-.36-1zm-7.1-5.67 3.59-1.78-.89-1.8-3.58 1.78-3.59 1.77.89 1.8zm-.88-1.8 3.94-.7-.29-1.61-3.94.7-3.94.69.29 1.62zm-.29-1.61 3.94-.7a1 1 0 0 1-.01-.34l.06-.14a4 4 0 0 1 1.66-1.16l-1.7-3.62-1.7-3.62a12 12 0 0 0-4.93 3.98 8.5 8.5 0 0 0-1.26 6.29zm3.95-5.96.56 3.96c4.8-.67 7.86-1.12 9.07-1.33l-.7-3.94-.7-3.94c-1.03.18-3.93.6-8.79 1.29zm8.93-1.31 3.54 1.85c1.1-2.1 2.2-5.06 3.32-8.72l-3.83-1.17-3.82-1.16c-1.08 3.52-2 5.9-2.75 7.34zm3.03-8.03 3.69 1.56c.61-1.46 1.18-1.62 1.53-1.68l-.7-3.94-.69-3.94c-3.69.65-6.13 3.19-7.5 6.43zm4.52-4.06.7 3.94q.25-.05.7-.05l.04-4 .04-4a12 12 0 0 0-2.17.17z" mask="url(#a)"/><path fill="#6fa8c0" d="M42.06 45.69h.25q.25.03.25.25v1.25q0 .97 1.13 2.12 2.97-3 5.25-3h1q1.87 0 3.75 4.38.25 0 3.12-2.88 2.82-2 4.38-2 3.03 0 4 6.88 0 .9.12 1.37-.12 1.57-.25 7.13 0 1.81 1.75 4.5 2.6 1.62 4.75 1.62h1q3.44 0 6.63-3.62.5-1.03.5-1.13.84 0 1.25.63v.25q0 1.37-6 4.62-1.28.88-2.75.88h-1.25q-2.22 0-5.13-1.75-1.75-2.1-1.75-5.38v-5.75q0-6.47-2.37-7.87-.4-.25-.75-.25h-.5q-2.5 0-5.75 5.37-.75 1.25-1.38 6.88l-.87.62h-.25q-.22 0-.5-.75.12-3.15.12-4.62 0-3.28-1.12-6.25-.81-1-1.63-1h-.25q-2.62 0-5.25 5.5-1.62 5.53-1.62 9.25l-.5.37h-.63q-.5-.22-.5-.87v-.25q.63-6.1 1.13-16zM89.72 21.5h.62q3.2 0 4.63 8.88.12.34.12 1.87v.5q0 8.1-5.37 19.75-1.03 2.06-6.25 6.88v.12q4.53 4.38 8.62 4.38h1.5q.75 0 5.5-.63v.13q-3.9 2.12-7.62 2.12h-1.13q-1.97 0-8.12-3.87-3.25-4.32-3.25-12.26v-3.24q0-14.38 6.62-22.38 2.82-2.25 4.13-2.25m-9.25 24.88q.69 10.74 1.87 10.74h.13q2.62-.96 6.5-6.5 4.37-7.78 4.37-17.12v-1.25q0-4.25-2.62-7.75l-.88-.25h-.62q-2.78 0-6.88 9.38-.5 1.9-1.87 12.74m45.12-6.3q1.91 0 2.13 2.5 0 .56-.63 4v.24q0 1.38 4.63 1.63 2.75 0 7.37-1.5.2 0 .38.37v.5q0 1.63-7.25 2h-3.88q-1 0-2.37-.12-1.13 0-3.75 5.5-2.53 4.34-4.25 6-4.1 4-4.88 4h-.62q-.53 0-1.25-3.13-3.56-7.22-8-17.75v-.37q0-1.13 1-1.13.69 0 3.12 8.13 5.1 10.75 5.75 11l.63.12q4.19-1.18 9.87-12.75v-.5q0-.5-1.12-1.5-1-1.34-1-3.75 0-2.1 3.37-3.5zm-2.12 4.62q.25.69.75.87h.62q.57 0 .88-2.25-.25-.4-.25-.62h-.38q-1.62.44-1.62 2m21.78-17.81h1q3.28 0 4 6.87 0 .63.13 1.5-.94 9.5-1.75 9.5-.75 2.4-4.75 9.63v.24l2.5 1.88q1.93 2.25 2.87 9.25 0 2.22 2.75 4.63 1.75 1 3.63 1 5.25 0 8.12-5.88.47-3.25 1.63-3.25.75.25.75.5v.63q-1.6 5.96-4.63 7.74-2.81 1.88-5.25 1.88h-1.62q-3.91 0-6.63-4.87-1.44-8.75-2.25-8.75-.9-2.38-2.62-2.38 0-.12-.75-.12-2.6 0-3.38 4.24-.87 3.32-.87 6.26v.12q0 2.1.25 3.88Q138.06 73 137 73h-.12q-.63-.28-.63-1.25.1-19.25.75-19.25a229 229 0 0 0 1.75-17.87q2.19-7.76 6.5-7.76m-7 26.88q.31 1.75.88 1.75 3.4-1.22 6.37-6.87 3.5-7.5 3.5-11.38v-3q0-4.81-3.12-5.5h-.75q-2.53 0-4.63 5.75-1 3.69-2.25 19.25"/><path fill="#6fa8c0" d="M42.06 45.69h.25q.25.03.25.25v1.25q0 .97 1.13 2.12 2.97-3 5.25-3h1q1.87 0 3.75 4.38.25 0 3.12-2.88 2.82-2 4.38-2 3.03 0 4 6.88 0 .9.12 1.37-.12 1.57-.25 7.13 0 1.81 1.75 4.5 2.6 1.62 4.75 1.62h1q3.44 0 6.63-3.62.5-1.03.5-1.13.84 0 1.25.63v.25q0 1.37-6 4.62-1.28.88-2.75.88h-1.25q-2.22 0-5.13-1.75-1.75-2.1-1.75-5.38v-5.75q0-6.47-2.37-7.87-.4-.25-.75-.25h-.5q-2.5 0-5.75 5.37-.75 1.25-1.38 6.88l-.87.62h-.25q-.22 0-.5-.75.12-3.15.12-4.62 0-3.28-1.12-6.25-.81-1-1.63-1h-.25q-2.62 0-5.25 5.5-1.62 5.53-1.62 9.25l-.5.37h-.63q-.5-.22-.5-.87v-.25q.63-6.1 1.13-16zM89.72 21.5h.62q3.2 0 4.63 8.88.12.34.12 1.87v.5q0 8.1-5.37 19.75-1.03 2.06-6.25 6.88v.12q4.53 4.38 8.62 4.38h1.5q.75 0 5.5-.63v.13q-3.9 2.12-7.62 2.12h-1.13q-1.97 0-8.12-3.87-3.25-4.32-3.25-12.26v-3.24q0-14.38 6.62-22.38 2.82-2.25 4.13-2.25m-9.25 24.88q.69 10.74 1.87 10.74h.13q2.62-.96 6.5-6.5 4.37-7.78 4.37-17.12v-1.25q0-4.25-2.62-7.75l-.88-.25h-.62q-2.78 0-6.88 9.38-.5 1.9-1.87 12.74m45.12-6.3q1.91 0 2.13 2.5 0 .56-.63 4v.24q0 1.38 4.63 1.63 2.75 0 7.37-1.5.2 0 .38.37v.5q0 1.63-7.25 2h-3.88q-1 0-2.37-.12-1.13 0-3.75 5.5-2.53 4.34-4.25 6-4.1 4-4.88 4h-.62q-.53 0-1.25-3.13-3.56-7.22-8-17.75v-.37q0-1.13 1-1.13.69 0 3.12 8.13 5.1 10.75 5.75 11l.63.12q4.19-1.18 9.87-12.75v-.5q0-.5-1.12-1.5-1-1.34-1-3.75 0-2.1 3.37-3.5zm-2.12 4.62q.25.69.75.87h.62q.57 0 .88-2.25-.25-.4-.25-.62h-.38q-1.62.44-1.62 2m21.78-17.81h1q3.28 0 4 6.87 0 .63.13 1.5-.94 9.5-1.75 9.5-.75 2.4-4.75 9.63v.24l2.5 1.88q1.93 2.25 2.87 9.25 0 2.22 2.75 4.63 1.75 1 3.63 1 5.25 0 8.12-5.88.47-3.25 1.63-3.25.75.25.75.5v.63q-1.6 5.96-4.63 7.74-2.81 1.88-5.25 1.88h-1.62q-3.91 0-6.63-4.87-1.44-8.75-2.25-8.75-.9-2.38-2.62-2.38 0-.12-.75-.12-2.6 0-3.38 4.24-.87 3.32-.87 6.26v.12q0 2.1.25 3.88Q138.06 73 137 73h-.12q-.63-.28-.63-1.25.1-19.25.75-19.25a229 229 0 0 0 1.75-17.87q2.19-7.76 6.5-7.76m-7 26.88q.31 1.75.88 1.75 3.4-1.22 6.37-6.87 3.5-7.5 3.5-11.38v-3q0-4.81-3.12-5.5h-.75q-2.53 0-4.63 5.75-1 3.69-2.25 19.25"/><path fill="#6fa8c0" d="M42.06 45.69v-2h-.7l-.55.44zm.25 0 .25-1.99-.12-.01h-.13zm1.38 3.62-1.44 1.4 1.43 1.46 1.43-1.45zm10 1.38-1.84.79.52 1.2h1.32zm3.12-2.88-1.16-1.63-.13.1-.12.12zm8.38 4.88h2v-.14l-.02-.14zm.12 1.37 2 .16.02-.34-.08-.33zm-.25 7.13-2-.05v.05zm1.75 4.5-1.67 1.09.24.37.37.23zm12.38-2 1.5 1.32.18-.2.12-.25zm.5-1.13v-2h-2v2zm1.25.63h2v-.6l-.33-.5zm-6 4.87-.95-1.76-.1.05-.08.06zm-9.13-.87-1.53 1.28.21.26.3.17zm-4.12-19-1.05 1.7h.02v.02zm-7 5.12-1.71-1.03zM53.3 60.2l1.17 1.63.72-.52.1-.9zm-.87.62v2h.64l.52-.37zm-.75-.75-2-.08-.02.4.15.39zm-1-10.87 1.87-.71-.12-.3-.2-.25zm-7.13 4.5-1.8-.86-.07.14-.05.15zm-1.62 9.25 1.2 1.6.8-.6v-1zm-.5.37v2h.66l.54-.4zm-.63 0-.8 1.84.38.16h.42zm-.5-1.12-1.99-.2v.2zm1.13-16-1.25-1.56-.7.56-.05.9zm.62-.5v2h.25v-4h-.25zm.25 0-.25 1.98a1.7 1.7 0 0 1-.97-.49 1.8 1.8 0 0 1-.53-1.24h4a2.2 2.2 0 0 0-.65-1.59 2.3 2.3 0 0 0-1.35-.65zm.25.25h-2v1.25h4v-1.25zm0 1.25h-2c0 1.42.8 2.6 1.7 3.52l1.43-1.4 1.43-1.4q-.4-.43-.5-.64c-.08-.14-.06-.16-.06-.08zm1.13 2.12 1.42 1.4c1.9-1.9 3.15-2.4 3.83-2.4v-4c-2.36 0-4.6 1.5-6.67 3.6zm5.25-3v2h1v-4h-1zm1 0v2c-.22 0-.1-.13.35.4.44.5.97 1.39 1.56 2.77l1.84-.8 1.84-.78a15 15 0 0 0-2.2-3.8 4.5 4.5 0 0 0-3.4-1.79zm3.75 4.38v2a2 2 0 0 0 1.16-.35l.37-.27q.31-.25.73-.63a82 82 0 0 0 2.28-2.21L56.8 47.8l-1.4-1.4a79 79 0 0 1-2.16 2.1l-.5.44q-.08.05 0 0l.2-.1c.06-.03.35-.15.75-.15zm3.12-2.88 1.16 1.63q1.32-.92 2.17-1.3c.6-.28.93-.33 1.05-.33v-4c-.92 0-1.85.29-2.7.68q-1.35.61-2.84 1.7zm4.38-2v2c.07 0 .35-.02.78.73.48.81.93 2.23 1.24 4.43l1.98-.28 1.98-.28c-.34-2.39-.88-4.4-1.74-5.88-.9-1.55-2.3-2.72-4.24-2.72zm4 6.88h-2c0 .65.04 1.32.19 1.89l1.93-.52 1.94-.51a4 4 0 0 1-.06-.86zm.12 1.37-2-.16a167 167 0 0 0-.25 7.24l2 .05 2 .04q.13-5.56.25-7zm-.25 7.13h-2c0 1.79.84 3.7 2.08 5.59l1.67-1.1 1.68-1.08c-1.1-1.69-1.43-2.79-1.43-3.41zm1.75 4.5-1.06 1.7a11 11 0 0 0 5.81 1.92v-4c-.93 0-2.15-.35-3.69-1.32zm4.75 1.62v2h1v-4h-1zm1 0v2c3.07 0 5.78-1.63 8.13-4.3l-1.5-1.32-1.5-1.32c-1.9 2.16-3.61 2.94-5.13 2.94zm6.63-3.62 1.8.87.4-.86.14-.32a2 2 0 0 0 .16-.82h-4a2 2 0 0 1 .07-.53l.02-.06v-.01.03l-.05.09-.34.73zm.5-1.13v2l-.16-.05a1 1 0 0 1-.27-.23l1.68-1.1 1.67-1.08a3.4 3.4 0 0 0-2.92-1.54zm1.25.63h-2v.25h4v-.25zm0 .25h-2c0-.47.22-.65.07-.46q-.14.21-.8.72-1.3 1-4.22 2.6l.95 1.76.95 1.76a37 37 0 0 0 4.77-2.95 9 9 0 0 0 1.45-1.36c.35-.43.83-1.15.83-2.07zm-6 4.62-1.13-1.65a3 3 0 0 1-1.62.53v4q2.1-.02 3.88-1.23zm-2.75.88v-2h-1.25v4h1.25zm-1.25 0v-2c-.97 0-2.32-.4-4.1-1.47L65.8 67.2l-1.03 1.71c2.1 1.26 4.17 2.04 6.16 2.04zM65.8 67.2l1.54-1.28a6 6 0 0 1-1.29-4.1h-4c0 2.56.7 4.83 2.22 6.66zm-1.75-5.38h2v-5.75h-4v5.75zm0-5.75h2c0-2.25-.2-4.2-.68-5.78-.47-1.56-1.28-2.99-2.67-3.81l-1.02 1.72-1.02 1.72c.19.11.56.46.88 1.53.32 1.05.51 2.56.51 4.62zM61.7 48.2l1.05-1.7a3.4 3.4 0 0 0-1.8-.55v4c-.26 0-.37-.1-.3-.05zm-.75-.25v-2h-.5v4h.5zm-.5 0v-2c-1.57 0-2.93.83-4.06 1.88a21 21 0 0 0-3.4 4.46l1.7 1.03 1.72 1.04a17 17 0 0 1 2.72-3.6c.79-.75 1.22-.81 1.32-.81zm-5.75 5.37-1.72-1.03a10 10 0 0 0-.96 2.98q-.37 1.85-.68 4.7l1.98.23 1.99.22q.3-2.77.63-4.36a13 13 0 0 1 .42-1.6l.05-.1zm-1.4 6.88-1.16-1.63-.87.63 1.16 1.62 1.16 1.63.88-.62zm-.87.62v-2h-.25v4h.25zm-.25 0v-2c.56 0 .95.25 1.13.4.18.14.28.27.3.3.04.07.02.05-.06-.15l-1.87.7-1.87.7c.1.3.26.66.47.98.1.15.28.38.54.59s.72.48 1.36.48zm-.5-.75 2 .08q.12-3.16.12-4.7h-4a127 127 0 0 1-.12 4.54zm.12-4.62h2q0-3.64-1.25-6.96l-1.87.7-1.87.72a16 16 0 0 1 1 5.54zm-1.12-6.25 1.55-1.26c-.7-.86-1.75-1.74-3.18-1.74v4l-.18-.03-.05-.02.1.08q.08.07.2.23zm-1.63-1v-2h-.25v4h.25zm-.25 0v-2c-1.62 0-2.99.86-4.07 2s-2.06 2.71-2.98 4.64l1.8.86 1.8.86c.84-1.74 1.6-2.9 2.27-3.6s1.06-.76 1.18-.76zm-5.25 5.5-1.92-.57c-1.1 3.79-1.7 7.07-1.7 9.82h4q-.02-3.32 1.54-8.69zm-1.62 9.25-1.2-1.6-.5.37 1.2 1.6 1.2 1.6.5-.37zm-.5.37v-2h-.63v4h.63zm-.63 0 .8-1.83c.2.08.42.25.56.51a1 1 0 0 1 .14.45h-4c0 .46.09 1.01.4 1.54.3.55.78.94 1.3 1.17zm-.5-.87h2v-.25h-4v.25zm0-.25 2 .2q.62-6.17 1.13-16.1l-2-.1-2-.1A321 321 0 0 1 38.31 62zm1.13-16 1.25 1.56.62-.5-1.25-1.56-1.25-1.56-.62.5zm53.53-15.82L93 30.7l.03.19.06.18zM89.72 52.5l1.79.9.01-.03.01-.03zm-6.25 6.88L82.1 57.9l-.64.6v.88zm0 .12h-2v.85l.6.59zm15.62 3.75h2v-2.28l-2.26.3zm0 .13.96 1.75 1.04-.57v-1.18zm-16.87-1.76-1.6 1.2.22.3.31.2zm3.37-37.87-1.25-1.56-.16.13-.13.15zm-5.12 22.63-1.99-.26-.02.2.01.18zm2 10.74v2h.36l.33-.12zm6.5-6.5 1.64 1.15.05-.08.05-.08zm1.75-26.12 1.6-1.2-.4-.54-.65-.18zm-.88-.25.55-1.92-.27-.08h-.28zm-7.5 9.38-1.83-.8-.06.14-.04.15zm7.38-12.13v2h.62v-4h-.62zm.62 0v2c.03 0 .09 0 .23.11.18.14.44.44.75 1.03.62 1.2 1.2 3.17 1.68 6.06l1.97-.32 1.97-.32c-.49-3.03-1.15-5.5-2.07-7.26-.9-1.74-2.35-3.3-4.53-3.3zm4.63 8.88-1.88.68-.05-.15.03.24.02 1.1h4q0-.8-.03-1.37c-.02-.3-.06-.77-.21-1.19zm.12 1.87h-2v.5h4v-.5zm0 .5h-2c0 4.99-1.66 11.27-5.19 18.91l1.82.84 1.81.84c3.65-7.9 5.56-14.78 5.56-20.59zM89.72 52.5l-1.8-.9c-.2.44-.74 1.19-1.76 2.3a67 67 0 0 1-4.05 4l1.36 1.48 1.35 1.46a71 71 0 0 0 4.3-4.25 16 16 0 0 0 2.39-3.2zm-6.25 6.88h-2v.12h4v-.12zm0 .12-1.4 1.44c3.2 3.09 6.56 4.94 10.02 4.94v-4c-1.99 0-4.39-1.07-7.23-3.82zm8.62 4.38v2h1.5v-4h-1.5zm1.5 0v2c.4 0 1.1-.07 1.98-.17q1.4-.16 3.79-.48l-.27-1.98-.26-1.98-3.71.46q-.68.08-1.08.11l-.42.03h-.03zm5.5-.63h-2v.13h4v-.13zm0 .13-.95-1.76a14 14 0 0 1-6.67 1.88v4c2.87 0 5.74-.82 8.58-2.37zm-7.62 2.12v-2h-1.13v4h1.13zm-1.13 0v-2c-.16 0-.8-.13-2.15-.77a51 51 0 0 1-4.9-2.8l-1.07 1.7-1.07 1.69a55 55 0 0 0 5.32 3.02c1.36.65 2.72 1.16 3.87 1.16zm-8.12-3.87 1.6-1.2c-1.81-2.4-2.85-6-2.85-11.05h-4c0 5.52 1.13 10.1 3.65 13.45zm-3.25-12.26h2v-3.24h-4v3.24zm0-3.24h2c0-9.3 2.14-16.25 6.16-21.1l-1.54-1.28-1.54-1.28c-4.8 5.81-7.08 13.78-7.08 23.66zm6.62-22.38 1.25 1.56q1.34-1.05 2.15-1.5c.6-.31.8-.31.73-.31v-4c-.94 0-1.86.38-2.65.8q-1.25.7-2.73 1.89zm-5.12 22.63-2 .12q.34 5.41.84 8.28c.16.93.36 1.77.61 2.4.12.32.31.71.6 1.06s.9.88 1.82.88v-4c.73 0 1.15.43 1.25.55s.1.18.05.05a9 9 0 0 1-.39-1.63q-.45-2.51-.79-7.84zm1.87 10.74v2h.13v-4h-.13zm.13 0 .7 1.88c1.26-.47 2.48-1.4 3.65-2.57q1.8-1.8 3.79-4.66l-1.64-1.15-1.64-1.14A31 31 0 0 1 84 53.6c-1 1-1.73 1.47-2.21 1.65zm6.5-6.5 1.74.99a36.3 36.3 0 0 0 4.63-18.11h-4q0 8.84-4.12 16.15zm4.37-17.12h2v-1.25h-4v1.25zm0-1.25h2q-.01-4.93-3.02-8.95l-1.6 1.2-1.6 1.2q2.23 2.98 2.22 6.55zm-2.62-7.75.55-1.92-.88-.25-.55 1.92-.55 1.92.88.25zm-.88-.25v-2h-.62v4h.62zm-.62 0v-2c-1.04 0-1.95.44-2.68.99s-1.4 1.3-2.04 2.17a40 40 0 0 0-3.99 7.42l1.83.8 1.84.8a36 36 0 0 1 3.54-6.65c.51-.7.92-1.12 1.23-1.35s.38-.18.27-.18zm-6.88 9.38-1.93-.51c-.38 1.43-1.02 5.85-1.93 13l1.99.26 1.98.25c.93-7.3 1.54-11.39 1.83-12.5zm45.38 8.93h2v-.18zm-.63 4-1.96-.35-.04.17v.18zm4.63 1.88-.1 2h.1zm7.37-1.5v-2h-.31l-.3.1zm.38.37h2v-.47l-.21-.42zm-7.25 2.5v2h.1zm-6.25-.12.18-2h-.18zm-3.75 5.5 1.73 1 .04-.07.03-.07zm-4.25 6-1.39-1.44zm-6.75.87 1.95-.45-.05-.22-.1-.21zm-8-17.75h-2v.4l.16.38zm4.12 6.63-1.91.57.04.15.07.13zm5.75 11-.7 1.87.15.06.16.03zm.63.12-.4 1.96.48.1.46-.13zm9.87-12.75 1.8.89.2-.42v-.47zm-1.12-2-1.6 1.2.12.16.15.14zm2.37-7.25v-2h-.4l-.37.16zm-1.37 4.63h-2v.35l.12.33zm.75.87-.7 1.88.34.12h.36zm1.5-2.25 1.98.28.1-.71-.38-.62zm-.25-.62h2v-2h-2zm-.38 0v-2h-.26l-.26.07zm.5-2.63v2q.14.02.07 0l-.1-.08c-.02-.01 0 .01.05.14q.07.17.12.62l1.99-.18 2-.17a5.3 5.3 0 0 0-1.12-3 3.8 3.8 0 0 0-3-1.33zm2.13 2.5h-2s-.02.26-.13.98l-.46 2.67 1.96.35 1.97.36q.32-1.73.48-2.77c.1-.62.18-1.21.18-1.59zm-.63 4h-2v.25h4v-.25zm0 .25h-2c0 1.86 1.61 2.67 2.5 2.98 1.04.37 2.43.56 4.02.65l.1-2 .12-2a12 12 0 0 1-2.92-.42c-.25-.09-.24-.13-.15-.04.14.13.33.42.33.83zm4.63 1.63v2c2.14 0 4.84-.58 8-1.6l-.63-1.9-.61-1.9c-3.01.97-5.24 1.4-6.76 1.4zm7.37-1.5v2a1.7 1.7 0 0 1-1.22-.5c-.15-.15-.2-.26-.19-.23l1.79-.9 1.79-.9a3 3 0 0 0-.57-.8 2.3 2.3 0 0 0-1.6-.67zm.38.37h-2v.5h4v-.5zm0 .5h-2c0-.6.37-.88.37-.88l-.17.08a4 4 0 0 1-.55.19c-.99.27-2.63.5-5 .61l.1 2 .1 2q3.7-.18 5.87-.76a6 6 0 0 0 2-.88 2.9 2.9 0 0 0 1.28-2.36zm-7.25 2v-2h-3.88v4h3.88zm-3.88 0v-2a25 25 0 0 1-2.19-.11l-.18 1.99-.18 1.99q1.42.13 2.55.13zm-2.37-.12v-2c-.96 0-1.66.55-2 .87-.42.37-.8.86-1.15 1.38a35 35 0 0 0-2.4 4.39l1.8.86 1.8.86q1.29-2.69 2.1-3.86.41-.58.54-.68c.15-.14-.1.18-.7.18zm-3.75 5.5-1.73-1c-1.67 2.86-2.97 4.66-3.9 5.56l1.38 1.44 1.39 1.44c1.35-1.31 2.89-3.52 4.59-6.44zm-4.25 6-1.4-1.43a52 52 0 0 1-3.14 2.88 8 8 0 0 1-.8.6l-.06.04s.2-.1.52-.1v4c.45 0 .82-.12 1.02-.21q.35-.16.64-.33.56-.37 1.22-.9 1.32-1.1 3.4-3.12zm-4.88 4v-2h-.62v4h.62zm-.62 0v-2a1.7 1.7 0 0 1 1.33.61q.07.14-.05-.14-.23-.54-.58-2.05l-1.95.45-1.95.45q.37 1.62.76 2.64c.13.32.3.7.55 1.03.18.24.8 1 1.89 1zm-1.25-3.13 1.8-.88q-3.53-7.15-7.96-17.64l-1.84.77-1.84.78q4.45 10.56 8.04 17.86zm-8-17.75h2v-.37h-4v.37zm0-.37h2c0-.12.03.16-.26.48-.32.37-.7.4-.74.4v-4c-.7 0-1.59.2-2.25.95a3.2 3.2 0 0 0-.75 2.17zm1-1.13v2c-.47 0-.81-.17-.98-.28a2 2 0 0 1-.31-.26q-.1-.14 0 .02.17.31.55 1.27a90 90 0 0 1 1.95 5.95l1.91-.57 1.92-.58a94 94 0 0 0-2.05-6.23q-.4-1.07-.79-1.78a4 4 0 0 0-.51-.74c-.13-.14-.7-.8-1.7-.8zm3.12 8.13-1.8.85a251 251 0 0 0 4.02 8.2q.73 1.4 1.22 2.21a8 8 0 0 0 .82 1.1c.1.1.37.35.78.5l.71-1.86.72-1.87c.36.14.56.34.58.36l.05.06-.25-.38a35 35 0 0 1-1.09-1.97q-1.4-2.7-3.95-8.06zm5.75 11-.39 1.96.63.12.39-1.96.4-1.96-.63-.12zm.63.12.54 1.93c2.04-.58 3.89-2.27 5.6-4.48q2.64-3.43 5.53-9.31l-1.8-.89-1.8-.88a52 52 0 0 1-5.09 8.63c-1.58 2.03-2.77 2.86-3.53 3.08zm9.87-12.75h2v-.5h-4v.5zm0-.5h2c0-.84-.43-1.49-.68-1.82q-.46-.6-1.11-1.17l-1.33 1.5-1.33 1.49q.24.2.38.36l.2.22-.02-.04a1 1 0 0 1-.1-.54zm-1.12-1.5 1.6-1.2c-.32-.42-.6-1.2-.6-2.55h-4c0 1.86.38 3.58 1.4 4.95zm-1-3.75h2c0-.1.02-.26.28-.53.3-.31.87-.71 1.86-1.12l-.77-1.85-.77-1.84c-2.4 1-4.6 2.65-4.6 5.34zm3.37-3.5v2h.75v-4h-.75zm-1.37 4.63-1.88.68c.29.8.86 1.67 1.93 2.07l.7-1.88.7-1.87q.26.11.38.26.1.14.05.05zm.75.87v2h.62v-4h-.62zm.62 0v2c.84 0 1.44-.44 1.76-.8.31-.35.5-.74.6-1.03.24-.6.39-1.35.5-2.14l-1.98-.28-1.98-.27c-.1.7-.2 1.08-.26 1.24-.03.08 0-.03.14-.19.16-.18.57-.53 1.22-.53zm.88-2.25 1.7-1.05-.03-.05.04.14q.03.11.04.34h-4c0 .75.36 1.38.54 1.67zm-.25-.62v-2h-.38v4h.38zm-.38 0-.52-1.93c-.82.22-1.64.64-2.25 1.39a4 4 0 0 0-.85 2.54h4v-.1l-.04.08-.03.03.21-.08zm25.16-8.94h2v-.1l-.01-.1zm.13 1.5 1.99.2.02-.24-.03-.24zm-1.75 9.5v-2h-1.48l-.43 1.4zm-4.75 9.63-1.75-.97-.25.45v.52zm0 .25h-2v1l.8.6zm2.5 1.87 1.51-1.3-.14-.17-.18-.13zm2.87 9.25h2v-.13l-.02-.14zm2.75 4.63-1.32 1.5.15.13.18.1zm11.75-4.88 1.8.88.13-.28.05-.31zm1.63-3.25.63-1.9-.31-.1h-.32zm.75 1.13 1.93.51.06-.25v-.26zm-4.63 7.75-1.01-1.73-.05.03-.05.03zm-13.5-3-1.97.32.05.34.17.3zm-2.25-8.75-1.87.7.5 1.3h1.37zM143.13 57h-2v2h2zM139 61.13l1.93.5.02-.07.02-.07zm-.62 10.24 1.96.38.06-.32-.04-.33zm-1.5 1.63-.83 1.82.4.18h.43zm-.63-1.25-2-.01v.01zM137 52.5v2h1.75l.23-1.73zm1.75-17.87-1.92-.55-.06.21-.02.22zm-.5 19.12-2-.16-.01.26.04.25zm.88 1.75v2h.34l.33-.12zm6.37-6.87 1.77.92.02-.04.02-.04zm.38-19.88.43-1.95-.22-.05h-.21zm-5.38 5.75-1.88-.68-.03.08-.02.08zm4.75-7.62v2h1v-4h-1zm1 0v2c.22 0 .51.04.91.72.46.78.87 2.17 1.1 4.36l1.99-.21 1.99-.2c-.25-2.4-.74-4.45-1.62-5.96-.94-1.61-2.4-2.71-4.37-2.71zm4 6.87h-2q0 .81.14 1.78l1.99-.28 1.98-.28a9 9 0 0 1-.11-1.22zm.13 1.5-2-.2q-.45 4.72-.88 6.96c-.14.77-.26 1.23-.35 1.48-.04.13-.04.08.04-.03.02-.03.47-.71 1.43-.71v4c1.1 0 1.7-.78 1.85-1a4 4 0 0 0 .45-.92q.29-.84.52-2.1.45-2.5.92-7.28zm-1.75 9.5-1.91-.6c-.43 1.38-1.9 4.4-4.6 9.26l1.76.97 1.74.96c2.65-4.77 4.34-8.16 4.91-10zm-4.75 9.63h-2v.24h4v-.24zm0 .24-1.2 1.6 2.5 1.88 1.2-1.6 1.2-1.6-2.5-1.87zm2.5 1.88-1.52 1.3c.39.46.85 1.3 1.3 2.73q.65 2.1 1.1 5.49l1.99-.27 1.98-.27a38 38 0 0 0-1.26-6.14 12 12 0 0 0-2.08-4.15zm2.87 9.25h-2c0 2.34 1.44 4.39 3.43 6.13l1.32-1.5 1.32-1.51c-1.67-1.46-2.07-2.5-2.07-3.12zm2.75 4.63-1 1.73a9 9 0 0 0 4.63 1.26v-4q-1.31.01-2.64-.73zm3.63 1v2c4.46 0 7.76-2.6 9.92-7l-1.8-.88-1.8-.88c-1.68 3.44-3.8 4.76-6.32 4.76zm8.12-5.88 1.98.28c.15-1 .32-1.57.45-1.82.06-.12.05-.07-.07.04a1.2 1.2 0 0 1-.74.25v-4c-1.52 0-2.37 1.12-2.77 1.92-.41.83-.66 1.9-.83 3.04zm1.63-3.25-.64 1.9c.19.06.18.08.09.01a2 2 0 0 1-.35-.33 2 2 0 0 1-.35-1.08h4c0-1.14-.84-1.75-1.08-1.91a4 4 0 0 0-1.04-.49zm.75.5h-2v.63h4v-.63zm0 .63-1.94-.52c-1.02 3.83-2.38 5.76-3.7 6.54l1.01 1.72 1.01 1.73c2.72-1.6 4.44-4.83 5.55-8.96zm-4.63 7.74-1.1-1.66c-1.68 1.11-3.05 1.54-4.15 1.54v4c2.15 0 4.28-.82 6.36-2.21zM156.25 73v-2h-1.62v4h1.62zm-1.62 0v-2c-1.6 0-3.25-.93-4.88-3.85l-1.75.98-1.75.97c2 3.58 4.75 5.9 8.37 5.9zM148 68.13l1.97-.33a84 84 0 0 0-1.31-6.74q-.29-1.16-.64-1.95a4 4 0 0 0-.5-.86 2.3 2.3 0 0 0-1.77-.87v4c-.86 0-1.3-.56-1.34-.6q-.13-.2-.04-.05.14.3.41 1.33.53 2.05 1.25 6.39zm-2.25-8.75 1.87-.72c-.73-1.92-2.13-3.66-4.5-3.66v4c.07 0 .1 0 .18.08.12.1.35.4.58 1zM143.13 57h2c0-1.2-.94-1.73-1.16-1.84-.3-.15-.58-.2-.7-.23a6 6 0 0 0-.9-.06v4c.23 0 .28.02.24 0 0 0-.19-.02-.43-.14a2 2 0 0 1-1.05-1.73zm-.75-.12v-2a4.6 4.6 0 0 0-3.71 1.81 9 9 0 0 0-1.64 4.07l1.97.37 1.97.36c.23-1.27.56-1.97.83-2.3.2-.26.35-.31.58-.31zM139 61.12l-1.93-.5a27 27 0 0 0-.94 6.76h4q0-2.64.8-5.74zm-.87 6.26h-2v.12h4v-.12zm0 .12h-2q0 2.21.26 4.15l1.99-.27 1.98-.28a26 26 0 0 1-.24-3.6zm.25 3.88L136.4 71l-.09.33q-.04.07.03-.03a1 1 0 0 1 .3-.22A1 1 0 0 1 137 71v4c.94 0 1.8-.4 2.4-1.11.54-.64.8-1.43.94-2.14zM137 73v-2h-.12v4h.12zm-.12 0 .82-1.82a1 1 0 0 1 .5.47c.07.16.05.23.05.1h-4c0 1.05.38 2.43 1.8 3.07zm-.63-1.25 2 .01q.04-9.62.23-14.37a56 56 0 0 1 .22-3.47q.06-.56.09-.65c.01-.05 0 .06-.1.22-.03.08-.14.28-.36.49-.23.21-.68.52-1.33.52v-4c-.67 0-1.15.32-1.41.56a2 2 0 0 0-.45.6 3 3 0 0 0-.24.67 10 10 0 0 0-.18 1.16q-.15 1.31-.23 3.75-.19 4.87-.24 14.5zM137 52.5l1.98.27a232 232 0 0 0 1.77-18.03l-2-.11-2-.12a227 227 0 0 1-1.73 17.72zm1.75-17.87 1.93.54c.69-2.46 1.5-4.09 2.32-5.07.78-.93 1.5-1.23 2.25-1.23v-4c-2.13 0-3.92 1-5.31 2.66-1.34 1.6-2.35 3.84-3.11 6.55zm-.5 19.12-1.97.35c.12.65.28 1.3.56 1.86.22.44.9 1.54 2.29 1.54v-4a1.6 1.6 0 0 1 1.24.6l.04.07-.02-.05-.05-.15-.12-.57zm.88 1.75.67 1.88c3-1.07 5.42-3.92 7.47-7.83l-1.77-.92-1.77-.94c-1.9 3.64-3.73 5.37-5.28 5.93zm6.37-6.87 1.81.84c2.35-5.03 3.69-9.16 3.69-12.22h-4c0 2.11-1 5.56-3.31 10.53zm3.5-11.38h2v-3h-4v3zm0-3h2c0-1.78-.28-3.43-1.04-4.77a5.4 5.4 0 0 0-3.66-2.68l-.43 1.95-.43 1.95c.5.11.8.34 1.04.76.28.5.52 1.37.52 2.79zm-3.12-5.5v-2h-.75v4h.75zm-.75 0v-2c-1.7 0-3.01.98-3.98 2.18s-1.8 2.88-2.53 4.89l1.88.68 1.88.68a14 14 0 0 1 1.88-3.74c.28-.35.5-.52.65-.61q.2-.1.21-.08zm-4.63 5.75-1.93-.52c-.73 2.68-1.49 9.3-2.31 19.61l1.99.16 2 .16c.83-10.45 1.57-16.65 2.18-18.89zm44.16 17.86q1.64.04 2.63 2.6l.55-.02q2.66 0 2.66 1.83v.04l-.02.45q0 .43-1.8 2.58.64 1.54.64 2.66 0 .29-.03.54-.22 1.23-1.57 1.23l-.06-.02q-1.4-.01-3.6-1.64-2.33 1.76-3.29 1.76h-.02q-.96-.02-1.46-.72-.32-.4-.32-.98 0-.4.16-.92.37-1.2.74-1.95-1.9-2-1.9-3.4v-.06q.03-1.19 3.68-1.52 1.58-2.46 2.99-2.46zm-.7-2.42q-2.92-.57-2.92-5.98 0-2.9.84-7.2.34-1.65 1.94-5.69 1.52-3.85 4.76-3.85h.3q3.8 1.43 3.8 3.97 0 .35-.08.72-.05.23-1.6 5.72l-.52 2.68q-.35 1.8-.51 6.17l-.14.66q-.27 3.19-3.4 3.19-.33 0-.7-.04z"/></svg>